<svg width="32" height="32" viewBox="0 0 32 32" fill="none" xmlns="http://www.w3.org/2000/svg">
<path d="M18.6375 9.7875C15.3438 8.18125 11.4813 9.13125 9.25003 11.8375L12.7 15.2875C13.0938 15.6813 13.0938 16.3125 12.7 16.7C12.5063 16.8938 12.25 16.9937 11.9938 16.9937C11.7375 16.9937 11.4813 16.8938 11.2875 16.7L8.15003 13.5625L0.143777 29.9813C-0.0374732 30.3563 -0.0499732 30.8125 0.143777 31.2125C0.481277 31.9062 1.32503 32.1938 2.01878 31.8563L10.3688 27.7812L7.29378 24.7062C6.90003 24.3187 6.90003 23.6813 7.29378 23.2938C7.68753 22.9063 8.31878 22.9063 8.70628 23.2938L12.2688 26.8563L18.6438 23.7437C20.1438 23.0125 21.425 21.7875 22.2125 20.175C24.0938 16.3187 22.4938 11.6688 18.6375 9.7875ZM24.3938 7.60625C25.6125 5.0625 24.9813 2.05625 22.5 0C19.3563 2.60625 19.2188 6.71875 22.0063 9.49375L22.5063 9.99375C25.2813 12.7812 29.4 12.6437 32 9.5C29.9438 7.01875 26.9375 6.3875 24.3938 7.60625Z" fill="#FFA628"/>
</svg>
